Coordinates
version=1
nRows=5
nColumns=40
inDegrees=yes

Units are S.I. units (second, meters, Newtons, ...)
If the header above contains a line with 'inDegrees', this indicates whether rotational values are in degrees (yes) or radians (no).

endheader
time	pelvis_tilt	pelvis_list	pelvis_rotation	pelvis_tx	pelvis_ty	pelvis_tz	hip_flexion_r	hip_adduction_r	hip_rotation_r	knee_angle_r	knee_angle_r_beta	ankle_angle_r	subtalar_angle_r	mtp_angle_r	hip_flexion_l	hip_adduction_l	hip_rotation_l	knee_angle_l	knee_angle_l_beta	ankle_angle_l	subtalar_angle_l	mtp_angle_l	lumbar_extension	lumbar_bending	lumbar_rotation	arm_flex_r	arm_add_r	arm_rot_r	elbow_flex_r	pro_sup_r	wrist_flex_r	wrist_dev_r	arm_flex_l	arm_add_l	arm_rot_l	elbow_flex_l	pro_sup_l	wrist_flex_l	wrist_dev_l
      0.33000000	      2.24653518	     -6.32901161	     89.24964186	      0.21725622	      0.93138593	      0.37888874	     19.77722869	      5.67789920	     -5.50444665	     17.01513707	      0.29697016	      2.67257340	      0.00000000	      0.00000000	     22.82095835	     -5.83663733	     -2.00367654	     60.39056010	      1.05401411	     -5.72454709	      0.00000000	      0.00000000	     -0.36857112	      4.49669363	     -2.59011501	      0.00000000	      0.00000000	      0.00000000	      0.00000000	      0.00000000	      0.00000000	      0.00000000	      0.00000000	      0.00000000	      0.00000000	      0.00000000	      0.00000000	      0.00000000	      0.00000000
      0.34000000	      2.22502388	     -6.44440182	     89.11567784	      0.21786997	      0.93269040	      0.36833091	     18.78581542	      5.76311223	     -5.31448218	     16.32684334	      0.28495717	      2.99603893	      0.00000000	      0.00000000	     24.22193686	     -5.82598284	     -2.11662392	     59.38599112	      1.03648107	     -4.82247865	      0.00000000	      0.00000000	     -0.36378472	      4.48317571	     -2.35789245	      0.00000000	      0.00000000	      0.00000000	      0.00000000	      0.00000000	      0.00000000	      0.00000000	      0.00000000	      0.00000000	      0.00000000	      0.00000000	      0.00000000	      0.00000000	      0.00000000
      0.35000000	      2.26217582	     -6.49322914	     88.97766540	      0.21852253	      0.93396211	      0.35774240	     17.68389443	      5.91538558	     -5.10996751	     15.56525856	      0.27166501	      3.13297574	      0.00000000	      0.00000000	     25.43202184	     -5.90022105	     -2.29106637	     58.04067826	      1.01300094	     -3.98696233	      0.00000000	      0.00000000	     -0.41622161	      4.53855207	     -2.08868949	     -0.00000000	     -0.00000000	     -0.00000000	      0.00000000	      0.00000000	     -0.00000000	     -0.00000000	     -0.00000000	      0.00000000	     -0.00000000	      0.00000000	      0.00000000	      0.00000000	      0.00000000
      0.36000000	      2.25380876	     -6.57464249	     88.81575007	      0.21921313	      0.93506916	      0.34721696	     16.61123254	      6.03226139	     -4.86887866	     14.77407235	      0.25785621	      3.29035825	     -0.00000000	      0.00000000	     26.55458007	     -5.90384490	     -2.49472320	     56.36320643	      0.98372353	     -3.24987165	     -0.00000000	      0.00000000	     -0.46406970	      4.49543422	     -1.81680844	      0.00000000	      0.00000000	     -0.00000000	      0.00000000	      0.00000000	      0.00000000	     -0.00000000	     -0.00000000	     -0.00000000	      0.00000000	      0.00000000	      0.00000000	      0.00000000	      0.00000000
      0.37000000	      2.22012905	     -6.76753532	     88.66274670	      0.21980001	      0.93581275	      0.33679775	     15.73746319	      6.09127276	     -4.68902141	     14.12370121	      0.24650509	      3.54470474	      0.00000000	      0.00000000	     27.70617183	     -5.85543356	     -2.70543946	     54.41633279	      0.94974417	     -2.64998983	      0.00000000	      0.00000000	     -0.36877895	      4.44613886	     -1.55353428	      0.00000000	      0.00000000	      0.00000000	      0.00000000	      0.00000000	      0.00000000	      0.00000000	      0.00000000	      0.00000000	      0.00000000	      0.00000000	      0.00000000	      0.00000000	      0.00000000
